# xmcd CD database file
#
# Track frame offsets:
#	150
#	19262
#	38245
#	70710
#	122262
#	141477
#	168675
#	191750
#	227572
#	271307
#	296802
#
# Disc length: 4324 seconds
#
# Revision: 0
# Processed by: cddbd v1.4PL0 Copyright (c) Steve Scherf et al.
# Submitted via: CDex 1.51
#
DISCID=a310e20b
DTITLE=Stan Kenton and his Orchestra - The British Tour 1973
DYEAR=1973
DGENRE=Jazz
TTITLE0=Artistry in rhythm
TTITLE1=Interlude
TTITLE2=The daily dance
TTITLE3=St. James Infirmary
TTITLE4=Malaguena
TTITLE5=What are you doing for the rest of your life?
TTITLE6=No harmful side effects
TTITLE7=Ambivalence
TTITLE8=Intermission riff
TTITLE9=Of space and time
TTITLE10=Fragment of a portrait
EXTD=YEAR: 1973
EXTT0=
EXTT1=
EXTT2=
EXTT3=
EXTT4=
EXTT5=
EXTT6=
EXTT7=
EXTT8=
EXTT9=
EXTT10=
PLAYORDER=
